<svg xmlns="http://www.w3.org/2000/svg" viewBox="0 0 281.4 93.5"><path d="M281.4 93.5H107.7V0h151.6c12.2 0 22.1 9.8 22.1 22v71.5z" fill="#dfdd00"/><path d="M143.6 51.7h3.1V71c-.6.4-1.2.6-1.8.6-1.3 0-2.1-.8-2.6-1.5l-9.6-13.6v14.9h-3.1V52.1c.6-.4 1.2-.6 1.8-.6 1.3 0 2.1.8 2.7 1.5l9.6 13.6-.1-14.9zm17.3 8.3h-4.1c-1.6 0-2.8-1.1-2.8-2.7s1.2-2.8 2.8-2.8c1.7 0 4.6.3 6.2.3 1.6 0 2.9-.5 3.4-2.4-2-.6-5.5-1.1-9-1.1-3.9 0-6.8 2.4-6.8 6 0 3.4 2.8 5.8 6.4 5.8h4.1c1.6 0 2.8 1.1 2.8 2.8 0 1.5-1.2 2.6-2.8 2.6-1.7 0-5-.3-6.6-.3s-2.9.5-3.4 2.3c2 .6 5.9 1.1 9.4 1.1 3.9 0 6.8-2.3 6.8-5.9-.1-3.3-2.9-5.7-6.4-5.7zm26.4 8.9c0 1.6 1.3 2.8 2.8 2.8h.5v-20h-3.4l.1 17.2zm-65.1 0c0 1.6 1.3 2.8 2.8 2.8h.5v-20h-3.4l.1 17.2zm144.7 2.2v-2.8h-11.3V63h8.5v-3.1h-8.5v-5.2h8.4c1.6 0 2.8-1.3 2.8-2.8v-.2h-14.6v19.7H267l-.1-.3c0 .1 0 0 0 0zm-73.8-19.4v3h6.8v16.7h3.4V54.7h4c1.6 0 2.8-1.3 2.8-2.8v-.2h-17zm39.2 0v3h6.8v16.7h3.4V54.7h4c1.6 0 2.8-1.3 2.8-2.8v-.2h-17zm-64.6 0v3h6.8v16.7h3.4V54.7h4c1.6 0 2.8-1.3 2.8-2.8v-.2h-17zm59 2.4v9c0 3.1-2.3 5.6-5.3 5.6s-5.4-2.5-5.4-5.6V51.7h-3.4v11.4c0 4.8 3.9 8.7 8.7 8.7s8.7-3.9 8.7-8.7V51.3h-.6c-1.4 0-2.7 1.3-2.7 2.8z" fill="#99abbe"/><path d="M154.7 22.9c6.3 0 11.5 5.1 11.5 11.5 0 6.3-5.1 11.5-11.5 11.5-6.3 0-11.5-5.1-11.5-11.5.1-6.3 5.2-11.5 11.5-11.5zm.1 19.5c4.3 0 7.6-3.6 7.6-8s-3.3-8-7.6-8-7.6 3.6-7.6 8c-.1 4.4 3.3 8 7.6 8zm63.1 3.4h-.6c-1.8 0-3.2-1.4-3.2-3.2V36h-12v9.5h-3.8V22.9h.6c1.8 0 3.2 1.4 3.2 3.2v6.4h12v-9.2h3.8v22.5zm9.5 0h-.6c-1.8 0-3.2-1.4-3.2-3.2V23.3h3.8v22.5zm9.5-3.8h8.3c1.8 0 3.2 1.4 3.2 3.2v.3h-15.3V23.3h3.8V42zm18.5 0h8.3c1.8 0 3.2 1.4 3.2 3.2v.3h-15.3V23.3h3.8V42zm-119-8c1.4-.5 3.1-2 3.1-4.6 0-3.7-2.7-6.4-7.1-6.4h-10.1v22.7h10.6c4.7 0 7.4-2.5 7.4-6.5 0-2.7-2.2-4.7-3.9-5.2zM126 26.3h5.6c2.8 0 3.9 1.3 3.9 3.2 0 1.9-1.1 3.2-3.9 3.2H126v-6.4zm6.4 16.1h-6.3v-6.5h6.3c2.8 0 4 1.3 4 3.3 0 1.9-1.2 3.2-4 3.2zm51.3-5.3l-.1-.1c-.2-.2-.3-.3-.5-.4-.5-.3-1.1-.5-1.8-.5-.9 0-1.8.5-2.5 1.1l5.7 7c1.1 1.3 1.8 1.6 2.9 1.6.9 0 1.9-.4 2.6-1.1l-6.3-7.6zm-6.4-.7c-.3-.8-.8-1.5-1.5-1.9l-8.4 10.2c.7.6 1.5 1.1 2.4 1.1 1.1 0 1.8-.4 2.8-1.6l4.1-4.7c.2-.3.5-.6.6-.9.2-.5.2-1.1.1-1.8-.1-.3-.1-.4-.1-.4zm-4.2-11.7c-1.1-1.3-1.8-1.6-2.9-1.6-.9 0-1.9.4-2.6 1.1l5.8 7.2c.9 1 1.6 1.3 2.6 1.3.9 0 1.9-.4 2.6-1.1l-5.5-6.9zm8.4 9.7l8.2-10.2c-.7-.7-1.5-1.1-2.4-1.1-1.1 0-1.8.4-2.8 1.6l-3.9 4.7-.2.2c-.1.2-.2.4-.3.5-.2.6-.3 1.2-.2 1.9.2 1 .8 1.8 1.6 2.4zM.1 0v71.4c0 12.2 9.9 22.1 22.1 22.1h82.1V0H.1z" fill="#002e5d"/><path d="M47.9 31.3c.1.1.2.1.3.2 1.3.6 3.2.6 4.2-.4 1-.9 2.4-1.6 3.6-2.2 5.4-10.4 9.5-13.1 11.9-14.4 1-.5 2.2-.9 3.2-.9.2 0 .3-.2.2-.3-.7-1.7 2.3-3.9 2.7-3.8.3.1-.2 1.7.2 2.3.6.9 1.8 1.2 2.8.9.5-.3.9-.6 1.4-1.1.3-.2.6-2 .9-2.1.3-.1.7 1.1.8 1.3.3 1 .3 2.2-.4 3-.3.3-.4.7-.6 1.1-.3.9.3 1.4.7 2.2.4.6 1 1 1.3 1.6.3.5.2 1 0 1.6-.1.2-.2.4-.2.6s.2.5.3.8c.5 1.6.6 3.2 1.6 4.6.3.4.6.7.8 1.1.2.5.4 1.2.3 1.8-.2.7-.7 1.4-.9 2.1-.3.9-1 1.6-1.9 1.7-.8.1-1.4-.4-1.8-1-.5-.6-.8-1-1.6-1.2-.6-.2-1.2-.4-1.8-.7l-.4-.2c.1 0 .1.1.2.2 0 .1.1.3.1.4 0 .8-.2 2-.3 2.3-.1 1.9-.3 4.2.2 6.1.4 1.6 1.6 2.9 2.2 4.5.8 2 .3 4.1-.1 6.1l-.2.9s1.1.7 1.2.8c.4.3.9.6 1.3.9.4.3.8.7 1.2 1 .9.7 1.9 1.2 2.8 1.9 1 .8 2.2 1.2 3.3 1.9 2.5 1.7 3.3 4.6 4.4 7.2.3.8.7 1.5 1.1 2.2.3.6.9 1.1 1.1 1.8.3.8-.6 1.4-.5 2.2 0 .6.2.8.3 1.1.5 1.2.6 2.1.7 3.5 0 .1-.1.4-.1.4-.2.4-.7.6-1 .7-1.3.6-2.9-.9-3-2.2-.1-.6 0-1.2.1-1.7 0-.2 0-.5.2-.7s.5-.1.7-.3c.2-.2.3-.7.3-1-.1-.6-.6-.7-.9-1.1-.5-.7-.1-.9-.1-1.7 0-.6-.3-1.1-.6-1.6-.6-1.3-1.1-2.7-1.9-3.7-.5-.6-1.1-.8-1.9-1.7-1-1.1-1.6-1.4-3.1-1.9-1.6-.5-3.2-.6-4.7-1.4-.8-.5-1.7-.5-2.5-.5-1-.1-2-.2-3.1-.3-.9-.2-1.7-.3-2.5 0-.6.2-1.2.5-.7 1.2 1.8 2.3 3 4.9 4.9 7 1.2 1.4 1.5 2.5 1.2 4.2-.1.7-1.4 1.3-1.9 1.7-.6.5-1 1.2-1.4 1.8-.2.4-.6 1-1 1.1-.5.2-.9.1-1.3-.2-.5-.3-.9-.3-1.5-.3-.4 0-.7-.2-1.1-.3-.3-.1-.7 0-1-.3-.4-.3-2.1-.8-2-1.4.1-1 1.7-2.4 2.6-2.5 1.1-.2 1.8 1.7 2.9 1.8 1-.1 1.8-1.1 2.1-2.2.2-1.4-1.7-2.8-2.8-3.8-1-.9-2-1.8-2.9-2.7-.7-.7-1.7-2.1-2.5-2.5-.7-.3-2.5-.6-2.4-1.7v-.7l-.2-.6c0-.1-3-.1-3.4-.1-1.5-.1-3.1-.3-4.5-.8 0 0-.9 2.3-1 2.5-.5 1.4-.8 2.7-.9 4.2-.1.8.2 1.7.7 2.3.4.5 1.1 1 1.6 1.5.6.5 1.2 1.1 1.8 1.6l1.2 1.1c.6.7 1.4 1.6 2.1 2 1.1.7 1.5 2 2.2 2.9.5.6.9 1.5 1.3 2.2.2.3.2.7.3 1 .1.4.4 1.6.1 2-.3.4-1.2.3-1.5.2-.5-.1-1-.3-1.5-.5-.9-.4-1.1-.7-1.1-1.7s.1-1.5.6-2.3c.1-.2-1.1-.2-1.6-.5-.6-.3-.7-1.1-1.1-1.7-2.2-3.2-5.6-5-8.4-7.6-.4-.4-.8-.5-1.3-.9-.8-.6-1.1-1.6-.7-2.6.5-1.3.9-2.6 1.1-3.9.2-1.2.3-2.8-.4-4-.9-1.3-2.7-1.7-3.8-2.7l-.4-.4c.2.2.1 1.1.1 1.3.1.4.3.8.3 1.3.1.8.3 1.7.4 2.5.2 1.3.5 2.6.8 3.8s.4 2.5.9 3.6c.4.9.9 1.8 1.4 2.6.5.7 1.2 1.3 1.3 2.2.1.5.3 1 .4 1.5.2.5.3 1.1.6 1.7.5.9 1.2 1.7 1.8 2.5 1 1.2 1.8 2.5 2.7 3.8 1.3 1.6 2.8 2.9 4.4 4.2.8.4 1.5.7 2.1 1.4.4.4 1.2 1.1.6 1.7-.6.6-1.9.5-2.7.4-.7 0-1.4-.1-1.9-.6-.3-.3-.4-.8-.8-1.2-.2-.2-.5-.2-.7-.4-.3-.3-.3-.7-.5-1-.4-.4-.9-.6-1.2-1.1-.5-.8-.7-1.7-1.3-2.5-.4-.6-.9-1.1-1.3-1.7-.5-.6-.9-1.2-1.3-1.8-.5-.6-1-1.3-1.6-1.8-.9-.7-1.5-1.6-2.2-2.4-.2-.3-.5-.7-.7-.9-.4-.4-.9-.6-1.3-1-.3-.4-.3-.9-.4-1.4-.1-.6-.4-1.2-.6-1.8-.9-3.8-3.2-7.6-5.6-10.7-1.3-1.8-2.9-3.4-4.4-5-.7-.8-1.3-1.6-1.8-2.5-.7-1.2-1.1-2.4-1.1-3.8 0-.7 0-1.5-.5-2.1-.6-.7-1.1.3-1.4.8-8.1 17.8-16 16.5-23 17.2-.3 0-.9 0-.2-.5 8.5-5.8 5-8.7 11.7-15 6.3-6 10.2-4.7 12.3-5.2 1.2-.3 2.2-1.6 3-2.4 1.5-1.4 3.1-2.8 5-3.9 3.6-2 8.2-2.2 11.8-.1z" fill="#fff"/></svg>