<svg enable-background="new 0 0 538.16 141.73" viewBox="0 0 538.16 141.73" xmlns="http://www.w3.org/2000/svg" xmlns:xlink="http://www.w3.org/1999/xlink"><linearGradient id="a"><stop offset="0" stop-color="#455a88"/><stop offset=".0909" stop-color="#2d4773"/><stop offset=".1546" stop-color="#223e69"/><stop offset=".2787" stop-color="#18305d"/><stop offset=".487" stop-color="#0d1f4e"/><stop offset=".7155" stop-color="#061546"/><stop offset="1" stop-color="#041243"/></linearGradient><linearGradient id="b" gradientUnits="userSpaceOnUse" x1="76.9746" x2=".7214" xlink:href="#a" y1="60.9281" y2="60.9281"/><linearGradient id="c" gradientUnits="userSpaceOnUse" x1="76.8074" x2="0" y1="60.4988" y2="60.4988"><stop offset="0" stop-color="#fff"/><stop offset=".4541" stop-color="#fff"/><stop offset=".5498" stop-color="#eaeaea"/><stop offset=".797" stop-color="#b9b9b9"/><stop offset=".9193" stop-color="#a6a6a6"/></linearGradient><linearGradient id="d" gradientUnits="userSpaceOnUse" x1="161.9911" x2="96.9158" xlink:href="#a" y1="30.7125" y2="30.7125"/><linearGradient id="e" gradientUnits="userSpaceOnUse" x1="161.9911" x2="96.9158" xlink:href="#a" y1="104.6127" y2="104.6127"/><linearGradient id="f" gradientUnits="userSpaceOnUse" x1="57.8542" x2="160.616" y1="71.7314" y2="71.7314"><stop offset="0" stop-color="#b8b8b8"/><stop offset=".0103" stop-color="#c4c4c4"/><stop offset=".0403" stop-color="#e4e4e4"/><stop offset=".0655" stop-color="#f8f8f8"/><stop offset=".0828" stop-color="#fff"/><stop offset=".1247" stop-color="#f8f8f8"/><stop offset=".1863" stop-color="#e4e4e4"/><stop offset=".2598" stop-color="#c4c4c4"/><stop offset=".2841" stop-color="#b8b8b8"/><stop offset=".4729" stop-color="#a1a1a1"/><stop offset=".6181" stop-color="#c4c4c4"/><stop offset=".7762" stop-color="#e4e4e4"/><stop offset=".9092" stop-color="#f8f8f8"/><stop offset="1" stop-color="#fff"/></linearGradient><linearGradient id="g"><stop offset=".2057" stop-color="#31487a"/><stop offset=".6907" stop-color="#132455"/><stop offset="1" stop-color="#041243"/></linearGradient><linearGradient id="h" gradientUnits="userSpaceOnUse" x1="66.4356" x2="85.7448" xlink:href="#g" y1="35.8016" y2="35.8016"/><linearGradient id="i" gradientUnits="userSpaceOnUse" x1="66.4356" x2="85.7448" xlink:href="#g" y1="70.8105" y2="70.8105"/><linearGradient id="j" gradientUnits="userSpaceOnUse" x1="66.4356" x2="85.7448" xlink:href="#g" y1="107.2093" y2="107.2093"/><linearGradient id="k"><stop offset=".006379728" stop-color="#31487a"/><stop offset=".2512" stop-color="#2c4274"/><stop offset=".5714" stop-color="#1f3264"/><stop offset=".9321" stop-color="#091849"/><stop offset="1" stop-color="#041243"/></linearGradient><linearGradient id="l" gradientUnits="userSpaceOnUse" x1="42.3323" x2="25.6303" xlink:href="#k" y1="57.0803" y2="58.8763"/><linearGradient id="m" gradientUnits="userSpaceOnUse" x1="142.854" x2="119.148" xlink:href="#k" y1="64.2187" y2="65.2962"/><path d="m76.8 118.49c.23-2.5-9.35-3.14-9.35-3.14s-11.23-1.14-27.39.39c-20.81 1.98-40.06 6.12-40.06 6.12v-114.94s19.25-4.13 40.06-6.11c16.16-1.54 27.39-.39 27.39-.39s9.58.64 9.35 3.14z" fill="url(#b)"/><path d="m76.8 3.63s.66 1.87-7.06 3.58-10.15 3.15-10.15 5.26 0 14.2 0 14.2h17.21z" fill="#041143"/><path d="m67.45 40.58s-11.23-1.14-27.39.39c-20.81 1.98-40.06 6.12-40.06 6.12v33.74s19.25-4.13 40.06-6.11c16.16-1.54 27.39-.39 27.39-.39s9.58.64 9.35 3.14v-33.75c.24-2.5-9.35-3.14-9.35-3.14z" fill="url(#c)"/><path d="m132.74 48.11c18.34-1.61 29.25 1.82 29.25 1.82v-41.3s-10.91-3.43-29.25-1.82c-13.61 1.19-22.85 4.45-35.83 6.93v41.3c12.98-2.47 22.22-5.73 35.83-6.93z" fill="url(#d)"/><path d="m161.99 123.29v-40.21s-10.91-3.43-29.25-1.82c-13.61 1.19-22.85 4.45-35.83 6.93v40.21c12.97-2.48 22.22-5.74 35.83-6.93 18.35-1.62 29.25 1.82 29.25 1.82z" fill="url(#e)"/><path d="m132.74 48.11c-13.61 1.19-22.85 4.45-35.83 6.93v-41.3c-4.51.86-9.47 1.63-15.23 2.18-21.79 2.1-22.09-3.28-22.1-3.53v41.32 33.12.01 40.2s-.21 5.69 22.1 3.54c5.76-.55 10.72-1.32 15.23-2.18v-40.21c12.97-2.48 22.22-5.74 35.83-6.93 18.34-1.61 29.25 1.82 29.25 1.82v-33.14s-10.9-3.44-29.25-1.83z" fill="url(#f)"/><path d="m75.89 24.57 3.06 5.87s1.94-.39 3.63-.85 2.54-.85 2.54-.85l-2.51 6.15 4.49 3.58s-2.25.93-3.22 1.26-2.44.73-2.44.73v6.57l-5.56-4-4.72 3.82v-6.6s-2.09-.73-3.15-1.3c-1.06-.58-1.48-.88-1.48-.88s1.37-1.57 1.95-2.1c.58-.52 1.54-1.4 1.54-1.4s-1.1-3.04-1.34-3.74c-.24-.71-.78-2.52-.78-2.52s1.71.85 2.79 1.26 2.4.82 2.4.82z" fill="url(#h)"/><path d="m75.89 59.58 3.06 5.87s1.94-.39 3.63-.85c1.7-.45 2.54-.85 2.54-.85l-2.51 6.15 4.49 3.58s-2.25.93-3.22 1.26-2.44.73-2.44.73v6.57l-5.56-4-4.72 3.82v-6.6s-2.09-.73-3.15-1.3c-1.06-.58-1.48-.88-1.48-.88s1.37-1.57 1.95-2.1c.58-.52 1.54-1.4 1.54-1.4s-1.1-3.04-1.34-3.74c-.24-.71-.78-2.52-.78-2.52s1.71.85 2.79 1.26 2.4.82 2.4.82z" fill="url(#i)"/><path d="m75.89 95.97 3.06 5.87s1.94-.39 3.63-.85 2.54-.85 2.54-.85l-2.51 6.15 4.49 3.58s-2.25.93-3.22 1.26-2.44.73-2.44.73v6.57l-5.56-4-4.72 3.82v-6.6s-2.09-.73-3.15-1.3c-1.06-.58-1.48-.88-1.48-.88s1.37-1.57 1.95-2.1c.58-.52 1.54-1.4 1.54-1.4s-1.1-3.04-1.34-3.74c-.24-.71-.78-2.52-.78-2.52s1.71.85 2.79 1.26 2.4.82 2.4.82z" fill="url(#j)"/><path d="m30.66 46.9 3 5.73 6.72-1.63-2.89 5.97 5.22 4.05-6.55 1.53.04 6.63-5.54-3.8-4.95 4.6v-6.59l-5.58-.63 4.34-4.74-2.47-5.58 5.77.66z" fill="url(#l)"/><path d="m127.77 53.69 2.94 5.63 6.59-1.6-2.83 5.86 5.12 3.97-6.42 1.51.04 6.49-5.44-3.72-4.86 4.51v-6.47l-5.48-.61 4.27-4.65-2.42-5.48 5.66.65z" fill="url(#m)"/><g fill="#4d4d4f"><path d="m471.67 24.01c12.76 0 22.98 9.08 22.98 21.84 0 12.84-10.23 21.84-22.9 21.84-12.76 0-22.98-9-22.98-21.84 0-12.76 10.22-21.84 22.9-21.84m.09 34.84c6.71 0 12.35-5.24 12.35-13 0-7.69-5.64-13-12.35-13-6.79 0-12.44 5.32-12.44 13 0 7.77 5.65 13 12.44 13"/><path d="m498.9 24.99h9.98v4.83c0 1.55-.16 2.86-.16 2.86h.16c1.8-3.52 6.38-8.67 14.81-8.67 9.24 0 14.47 4.83 14.47 15.87v26.82h-10.3v-24.7c0-5.07-1.31-8.51-6.63-8.51-5.56 0-9.65 3.52-11.2 8.51-.57 1.72-.74 3.6-.74 5.56v19.14h-10.39z"/><path d="m382.78 24.01c-7.12 0-12.2.06-14.5.09v.02c0 4.18 2.97 7.67 6.91 8.47h6.59c4.58 0 8.02 1.88 8.02 7.36v.57h-1.39c-6.79 0-24.7.9-24.7 14.15 0 8.34 6.71 13 14.15 13 9.49 0 12.76-7.36 12.68-7.36h.17s-.17 1.31-.17 2.95v3.44h9.57v-26.09c.01-10.55-6.37-16.6-17.33-16.6m7.12 24.61c0 5.07-3.93 10.96-9.41 10.96-4.25 0-6.3-2.61-6.3-5.4 0-5.81 8.59-6.54 13.91-6.54h1.8z"/><path d="m205.65 34.15h-17.57v-16.44h25.31v-9.08h-35.86v58.07h10.55v-23.47h12.17c3.21-1.75 5.4-5.16 5.4-9.08"/><path d="m434.2 35.32-.05.38v31h10.38v-41.71c-5.71 0-10.33 4.62-10.33 10.33"/><path d="m427.03 57.95c-2.86 0-8.26-.98-8.26-7.85v-16.2h9.49v-8.26h-9.49v-13.93c-5.04 0-9.23 3.61-10.15 8.39v5.55h-5.64v8.26h5.4v17.51c0 13.98 11.53 15.71 17.34 15.71 1.96 0 3.19-.25 3.19-.25v-9.08c0-.01-.73.15-1.88.15"/><path d="m281.73 18.13-.06.39v8.43c0 1.31.08 2.37.08 2.37h-.16s-2.86-5.32-12.02-5.32c-11.04 0-18.9 8.59-18.9 21.84 0 12.92 7.2 21.84 18.49 21.84 9.57 0 13.09-7.11 13.09-7.11h.16s-.16 1.15-.16 2.7v3.44h9.81v-58.91c-5.71 0-10.33 4.63-10.33 10.33m-10.2 40.8c-6.13 0-10.39-5.15-10.39-13.09 0-8.26 4.75-12.92 10.47-12.92 6.95 0 10.38 6.38 10.38 12.84.01 9.24-5.07 13.17-10.46 13.17"/><path d="m444.92 16.82c0 2.82-2.29 5.11-5.11 5.11s-5.11-2.29-5.11-5.11 2.29-5.11 5.11-5.11 5.11 2.29 5.11 5.11"/><path d="m242.27 54.58c-1.31 1.01-5.97 4.28-11.64 4.28-6.22 0-11.86-3.76-12.51-11.04h28.79s.24-2.78.24-4.01c0-11.04-6.46-19.79-18.48-19.79-12.44 0-21.19 9-21.19 21.84 0 11.86 8.59 21.84 22.41 21.84 8.88 0 15.18-6.01 17.23-8.25zm-13.85-22.56c4.58 0 8.1 3.02 8.26 8.67h-18.24c.99-5.39 4.66-8.67 9.98-8.67"/><path d="m330.93 54.57c-1.32 1.01-5.97 4.28-11.64 4.28-6.22 0-11.86-3.76-12.51-11.04h28.79s.24-2.78.24-4.01c0-11.04-6.46-19.79-18.48-19.79-12.43 0-21.18 9-21.18 21.84 0 11.86 8.59 21.84 22.41 21.84 8.89 0 15.18-6.01 17.23-8.25zm-13.85-22.55c4.58 0 8.09 3.02 8.26 8.67h-18.24c.98-5.4 4.66-8.67 9.98-8.67"/><path d="m340.38 24.99h9.98v6.71c0 1.55-.16 2.95-.16 2.95h.16c1.88-5.97 6.87-10.72 13.25-10.72.98 0 1.88.16 1.88.16v10.22s-1.06-.16-2.46-.16c-4.42 0-9.4 2.54-11.37 8.75-.65 2.04-.9 4.33-.9 6.79v17.01h-10.39v-41.71"/><path d="m498.9 24.99h9.98v4.83c0 1.55-.16 2.86-.16 2.86h.16c1.8-3.52 6.38-8.67 14.81-8.67 9.24 0 14.47 4.83 14.47 15.87v26.82h-10.3v-24.7c0-5.07-1.31-8.51-6.63-8.51-5.56 0-9.65 3.52-11.2 8.51-.57 1.72-.74 3.6-.74 5.56v19.14h-10.39z"/><path d="m177.49 79.25h2.95v31.45c0 9.06 5.9 14.62 14.97 14.62 9.06 0 15.04-5.56 15.04-14.76v-31.31h2.95v31.58c0 10.57-7.35 17.3-17.92 17.3s-17.99-6.73-17.99-17.3z"/><path d="m220.47 92.98h2.88v6.04c0 1.58-.27 2.82-.27 2.82h.14c1.17-3.23 5.97-9.68 14.56-9.68 8.93 0 11.33 5.29 11.33 13.39v21.77h-2.88v-20.74c0-5.97-.76-11.6-8.45-11.6-6.45 0-12.15 4.53-13.87 10.92-.41 1.44-.55 3.02-.55 4.67v16.75h-2.88v-34.34z"/><path d="m257.07 92.98h2.88v34.33h-2.88z"/><path d="m266.54 92.98h3.09l10.57 26.91c.62 1.65 1.17 3.71 1.17 3.71h.14s.55-2.06 1.17-3.71l10.57-26.91h3.02l-13.46 34.33h-2.75z"/><path d="m314.46 92.16c9.34 0 14.01 7.35 14.01 15.65 0 .76-.14 1.85-.14 1.85h-27.53c0 9.96 6.73 15.65 14.69 15.65 6.59 0 10.64-4.33 10.64-4.33l1.58 2.4s-4.81 4.74-12.22 4.74c-9.68 0-17.71-7-17.71-17.92 0-11.59 7.9-18.04 16.68-18.04zm10.99 14.83c-.34-8.38-5.36-12.15-11.05-12.15-6.32 0-12.15 4.12-13.39 12.15z"/><path d="m334.92 92.98h2.88v6.52c0 1.58-.27 2.82-.27 2.82h.14c1.72-5.29 5.56-9.61 10.99-9.61 1.03 0 1.99.21 1.99.21v2.88s-.82-.14-1.58-.14c-5.36 0-8.72 4.53-10.23 9.61-.76 2.4-1.03 4.94-1.03 7.21v14.83h-2.88v-34.33z"/><path d="m355.93 121s3.84 4.33 10.64 4.33c4.19 0 7.9-2.2 7.9-6.45 0-8.72-18.88-6.25-18.88-17.44 0-6.11 5.15-9.27 10.99-9.27 7 0 10.16 3.71 10.16 3.71l-1.72 2.33s-2.82-3.23-8.65-3.23c-3.91 0-7.76 1.79-7.76 6.25 0 8.93 18.88 6.25 18.88 17.65 0 5.49-4.67 9.27-10.99 9.27-8.31 0-12.43-4.94-12.43-4.94z"/><path d="m385.25 92.98h2.88v34.32h-2.88z"/><path d="m399.67 95.8h-4.53v-2.61h4.53v-9.75h2.88v9.75h8.99v2.61h-8.99v18.88c0 9.06 5.42 10.23 8.17 10.23.96 0 1.58-.14 1.58-.14v2.68s-.69.14-1.72.14c-3.57 0-10.92-1.3-10.92-12.7v-19.09z"/><path d="m416.97 137.34s1.92 1.65 4.26 1.65c3.3 0 5.36-2.95 6.73-6.18l2.47-5.7-14.21-34.12h3.09l11.33 27.4c.69 1.65 1.24 3.23 1.24 3.23h.14s.48-1.58 1.17-3.23l11.33-27.4h3.09l-17.65 42.36c-1.51 3.57-4.39 6.39-8.72 6.39-3.3 0-5.56-1.92-5.56-1.92z"/><path d="m385.25 79.25h2.88v5.01h-2.88z"/><path d="m257.07 79.25h2.88v5.01h-2.88z"/></g></svg>