<svg enable-background="new 0 0 400 106" viewBox="0 0 400 106" xmlns="http://www.w3.org/2000/svg"><g fill="#fff"><path d="m44.28 54.92c-3.58-.06-8.6.02-14.51.57-15.33 1.45-29.52 4.38-29.77 4.43v30.3s14.3-3.05 29.77-4.5c5.91-.56 10.93-.64 14.51-.57z"/><path d="m98.61 5.33c-6.6.58-11.81 1.79-17.33 3.08-2.93.69-5.97 1.4-9.33 2.03-3.78.72-7.47 1.24-11.29 1.61-1.28.12-2.46.21-3.54.27v-9.21c.02-.25-.09-.47-.29-.67-1.22-1.41-6.12-1.78-6.69-1.82-.08-.01-8.51-.83-20.42.29-15.31 1.45-29.58 4.46-29.72 4.5v29.66c.25-.05 14.44-2.99 29.77-4.43 5.91-.56 10.93-.64 14.51-.57v-20.02c0 .17.21 3.65 13.48 2.83.07 0 1.97-.14 2.94-.23.11-.01.21-.02.32-.03 1.65-.16 3.27-.36 4.89-.58.22-.03.46-.06.68-.09 1.67-.24 3.35-.52 5.03-.83.13-.02.27-.05.4-.07v.01 29.94c9.64-1.83 16.51-4.23 26.62-5.11 13.63-1.19 21.73 1.34 21.73 1.34l.01-30.57c-.07-.02-8.22-2.51-21.77-1.33z"/><path d="m98.64 60.31c-10.11.88-16.98 3.28-26.62 5.11v29.43c-.02 0-.04.01-.07.01-3.79.72-7.48 1.24-11.29 1.6-10.97 1.05-14.58-.53-15.62-1.44-.53-.47-.76-1.09-.76-1.11 0 .11-.07 1.01.62 1.63 1.08.97 3.38 1.88 9.07 1.88 1.88 0 4.11-.11 6.75-.36 3.83-.36 7.54-.89 11.35-1.61 3.37-.64 6.42-1.35 9.36-2.04 5.49-1.28 10.68-2.5 17.24-3.07 13.4-1.17 21.63 1.33 21.71 1.35v-30.03s-8.11-2.53-21.74-1.35z"/><path d="m64.67 48.27-4.61 1.04-2.05-4.25-2.06 4.25-4.6-1.04 2.04 4.26-3.69 2.95 4.61 1.06v4.72l3.7-2.94 3.7 2.94v-4.72l4.61-1.06-3.69-2.95z"/><path d="m64.67 22.25-4.61 1.04-2.05-4.25-2.06 4.25-4.6-1.04 2.04 4.26-3.69 2.95 4.61 1.05v4.73l3.7-2.94 3.7 2.94v-4.73l4.61-1.05-3.69-2.95z"/><path d="m64.67 74.29-4.61 1.05-2.05-4.26-2.06 4.26-4.6-1.05 2.04 4.26-3.69 2.95 4.61 1.06v4.72l3.7-2.94 3.7 2.94v-4.72l4.61-1.06-3.69-2.95z"/><path d="m101.58 42.75-4.6 1.04-2.06-4.25-2.06 4.25-4.6-1.04 2.04 4.26-3.69 2.95 4.61 1.05v4.73l3.7-2.94 3.7 2.94v-4.73l4.61-1.05-3.69-2.95z"/><path d="m30 39.04-4.61 1.05-2.05-4.26-2.06 4.26-4.6-1.05 2.03 4.26-3.68 2.95 4.6 1.06.01 4.72 3.7-2.94 3.7 2.94v-4.72l4.61-1.06-3.69-2.95z"/><path d="m350.58 18.17c-9.43 0-17.02 6.75-17.02 16.23 0 9.55 7.6 16.23 17.08 16.23 9.42 0 17.02-6.69 17.02-16.23 0-9.48-7.6-16.23-17.08-16.23zm.06 25.9c-5.05 0-9.24-3.89-9.24-9.67 0-5.71 4.2-9.67 9.24-9.67 4.98 0 9.18 3.95 9.18 9.67 0 5.78-4.19 9.67-9.18 9.67z"/><path d="m290.28 49.91h7.12v-19.4c0-7.84-4.74-12.34-12.89-12.34-5.3 0-9.07.04-10.78.07v.02c0 3.11 2.21 5.7 5.14 6.3h4.9c3.41 0 5.96 1.4 5.96 5.47v.43h-1.03c-5.05 0-18.36.67-18.36 10.52 0 6.2 4.98 9.66 10.52 9.66 7.05 0 9.49-5.47 9.42-5.47h.12s-.12.97-.12 2.19zm-.48-13.44c0 3.77-2.92 8.15-7 8.15-3.16 0-4.68-1.94-4.68-4.01 0-4.32 6.39-4.86 10.34-4.86h1.34z"/><path d="m139.78 32.46h9.04c2.39-1.3 4.01-3.84 4.01-6.75h-13.06v-12.22h18.81v-6.75h-26.65v43.17h7.84v-17.45z"/><path d="m330.4 18.9c-4.24 0-7.68 3.44-7.68 7.68l-.04.29v23.05h7.72z"/><path d="m318.8 50.03v-6.75s-.55.12-1.4.12c-2.13 0-6.14-.73-6.14-5.84v-12.04h7.05v-6.14h-7.05v-10.36c-3.75 0-6.86 2.69-7.54 6.23v4.13h-4.19v6.14h4.01v13.01c0 10.39 8.57 11.67 12.89 11.67 1.45.01 2.37-.17 2.37-.17z"/><path d="m209.77 45.35h.12s-.12.85-.12 2.01v2.55h7.29v-43.79c-4.24 0-7.68 3.44-7.68 7.68l-.04.29v6.27c0 .97.06 1.76.06 1.76h-.12s-2.13-3.95-8.94-3.95c-8.21 0-14.05 6.38-14.05 16.23 0 9.6 5.35 16.23 13.74 16.23 7.13.01 9.74-5.28 9.74-5.28zm-15.69-10.95c0-6.14 3.53-9.61 7.79-9.61 5.17 0 7.72 4.74 7.72 9.55 0 6.87-3.77 9.79-7.78 9.79-4.56 0-7.73-3.83-7.73-9.73z"/><path d="m326.89 16.62c2.1 0 3.8-1.7 3.8-3.8s-1.7-3.8-3.8-3.8-3.8 1.7-3.8 3.8 1.7 3.8 3.8 3.8z"/><path d="m183.67 44.5-3.61-3.61c-.97.75-4.44 3.18-8.65 3.18-4.62 0-8.82-2.8-9.3-8.21h21.4s.18-2.07.18-2.98c0-8.21-4.8-14.71-13.74-14.71-9.24 0-15.75 6.69-15.75 16.23 0 8.82 6.38 16.23 16.66 16.23 6.61.01 11.29-4.46 12.81-6.13zm-13.9-20.37c3.4 0 6.02 2.25 6.14 6.45h-13.56c.73-4.02 3.46-6.45 7.42-6.45z"/><path d="m245.96 40.89c-.98.75-4.44 3.18-8.65 3.18-4.62 0-8.82-2.8-9.3-8.21h21.4s.18-2.07.18-2.98c0-8.21-4.8-14.71-13.74-14.71-9.24 0-15.75 6.69-15.75 16.23 0 8.82 6.38 16.23 16.66 16.23 6.6 0 11.28-4.46 12.81-6.14zm-10.29-16.76c3.4 0 6.02 2.25 6.14 6.45h-13.56c.73-4.02 3.46-6.45 7.42-6.45z"/><path d="m269.82 25.71c1.03 0 1.83.12 1.83.12v-7.6s-.67-.12-1.4-.12c-4.74 0-8.45 3.53-9.85 7.97h-.12s.12-1.04.12-2.19v-4.99h-7.42v31.01h7.72v-12.65c0-1.82.18-3.53.67-5.04 1.46-4.63 5.17-6.51 8.45-6.51z"/><path d="m389.24 18.17c-6.26 0-9.67 3.83-11.01 6.45h-.12s.12-.97.12-2.13v-3.59h-7.42v31.01h7.72v-14.23c0-1.46.13-2.86.55-4.13 1.16-3.71 4.2-6.32 8.33-6.32 3.95 0 4.93 2.55 4.93 6.32v18.36h7.66v-19.95c0-8.2-3.89-11.79-10.76-11.79z"/><path d="m156.4 82.51c0 6.84-4.44 10.97-11.18 10.97s-11.13-4.13-11.13-10.87v-23.38h-2.2v23.48c0 7.86 5.51 12.86 13.37 12.86s13.32-5 13.32-12.86v-23.48h-2.19v23.28z"/><path d="m176.72 68.83c-6.38 0-9.95 4.8-10.82 7.2h-.1s.2-.92.2-2.09v-4.49h-2.14v25.52h2.14v-12.46c0-1.22.1-2.4.41-3.47 1.28-4.75 5.51-8.11 10.31-8.11 5.72 0 6.28 4.19 6.28 8.63v15.41h2.14v-16.19c0-6.02-1.79-9.95-8.42-9.95z"/><path d="m191.06 69.44h2.14v25.52h-2.14z"/><path d="m210.09 89.45c-.46 1.22-.87 2.76-.87 2.76h-.1s-.41-1.53-.87-2.76l-7.86-20.01h-2.3l10.05 25.52h2.04l10-25.52h-2.25z"/><path d="m233.72 68.83c-6.53 0-12.4 4.8-12.4 13.42 0 8.11 5.97 13.32 13.17 13.32 5.51 0 9.08-3.52 9.08-3.52l-1.17-1.79s-3.01 3.22-7.91 3.22c-5.92 0-10.92-4.24-10.92-11.64h20.47s.1-.82.1-1.38c0-6.17-3.48-11.63-10.42-11.63zm-10 11.02c.92-5.97 5.26-9.03 9.95-9.03 4.24 0 7.96 2.81 8.22 9.03z"/><path d="m250.97 76.38h-.1s.2-.92.2-2.09v-4.85h-2.14v25.52h2.14v-11.03c0-1.68.2-3.57.77-5.36 1.12-3.78 3.62-7.15 7.6-7.15.56 0 1.17.1 1.17.1v-2.14s-.71-.15-1.48-.15c-4.02.01-6.88 3.22-8.16 7.15z"/><path d="m266.54 75.56c0-3.32 2.86-4.64 5.77-4.64 4.34 0 6.43 2.4 6.43 2.4l1.28-1.74s-2.35-2.76-7.55-2.76c-4.34 0-8.17 2.35-8.17 6.89 0 8.32 14.04 6.48 14.04 12.96 0 3.16-2.76 4.8-5.87 4.8-5.05 0-7.91-3.22-7.91-3.22l-1.38 1.63s3.06 3.67 9.24 3.67c4.7 0 8.17-2.81 8.17-6.89-.02-8.45-14.05-6.46-14.05-13.1z"/><path d="m286.34 69.44h2.14v25.51h-2.14z"/><path d="m299.2 85.57v-14.04h6.69v-1.94h-6.69v-7.25h-2.14v7.25h-3.37v1.94h3.37v14.19c0 8.47 5.46 9.44 8.12 9.44.77 0 1.28-.1 1.28-.1v-1.99s-.46.1-1.17.1c-2.06 0-6.09-.87-6.09-7.6z"/><path d="m321.96 89.8c-.51 1.22-.87 2.4-.87 2.4h-.1s-.41-1.17-.92-2.4l-8.42-20.36h-2.3l10.56 25.37-1.84 4.24c-1.02 2.4-2.55 4.59-5 4.59-1.74 0-3.16-1.22-3.16-1.22l-.97 1.84s1.68 1.43 4.13 1.43c3.22 0 5.36-2.09 6.48-4.75l13.12-31.49h-2.3z"/><path d="m286.34 59.23h2.14v3.72h-2.14z"/><path d="m191.06 59.23h2.14v3.72h-2.14z"/></g></svg>